<?xml version="1.0" encoding="UTF-8"?>
<svg id="Layer_1" data-name="Layer 1" xmlns="http://www.w3.org/2000/svg" viewBox="0 0 684 684">
  <path d="M591.69,0H92.31C41.33,0,0,41.33,0,92.31v499.38c0,50.98,41.33,92.31,92.31,92.31h499.38c50.98,0,92.31-41.33,92.31-92.31V92.31c0-50.98-41.33-92.31-92.31-92.31ZM429.86,473.52c-37.87,45-104.11,78.34-160.15,73.27-.07.24-.14.47-.21.71-9.27,31.15-18.65,58.92-37,54-.23-.06-.46-.14-.67-.23-.94-.66-1.78-1.44-2.51-2.33l-.02-.02c-5.66-6.78-5.77-20.06-.97-37.81,1.89-6.95,4.53-14.6,7.88-22.8,13.88-33.95,40.01-77.57,75.7-122.21,24.95-31.21,62.56-77.78,101.49-120.86-33.57,16.03-82.74,51.77-124.24,96.13-43.37,46.35-70.18,99.06-80.16,131.63-44.93-65.38-18.86-158.12,33.04-219.31,32.65-38.5,119.55-81.62,238.96-80.69,1.16.01.32,2.29.47,3.43,17.89,130.92-19.11,208.49-51.61,247.09Z" style="fill: #218bd1; stroke-width: 0px;"/>
  <path d="M600.79,157.5H80.21c-18.07,0-32.71,14.64-32.71,32.71v411.58c0,18.07,14.64,32.71,32.71,32.71h507.54c25.26,0,45.75-20.49,45.75-45.75V190.21c0-18.07-14.64-32.71-32.71-32.71ZM430.36,473.02c-37.87,45-104.11,78.34-160.15,73.27-.07.24-.14.47-.21.71-9.27,31.15-18.65,58.92-37,54-.23-.06-.46-.14-.67-.23-.94-.66-1.78-1.44-2.51-2.33l-.02-.02c-5.66-6.78-5.77-20.06-.97-37.81,1.89-6.95,4.53-14.6,7.88-22.8,13.88-33.95,40.01-77.57,75.7-122.21,24.95-31.21,62.56-77.78,101.49-120.86-33.57,16.03-82.74,51.77-124.24,96.13-43.37,46.35-70.18,99.06-80.16,131.63-44.93-65.38-18.86-158.12,33.04-219.31,32.65-38.5,119.55-81.62,238.96-80.69,1.16.01.32,2.29.47,3.43,17.89,130.92-19.11,208.49-51.61,247.09Z" style="fill: #01558c; stroke-width: 0px;"/>
</svg>